<svg width="100%" viewBox="376 251 1457.8 1550" role="img" xmlns="http://www.w3.org/2000/svg" style="">
  <title style="fill:rgb(0, 0, 0);stroke:none;color:rgb(255, 255, 255);stroke-width:1px;stroke-linecap:butt;stroke-linejoin:miter;opacity:1;font-family:&quot;Anthropic Sans&quot;, -apple-system, BlinkMacSystemFont, &quot;Segoe UI&quot;, sans-serif;font-size:16px;font-weight:400;text-anchor:start;dominant-baseline:auto">Income icon</title>
  <desc style="fill:rgb(0, 0, 0);stroke:none;color:rgb(255, 255, 255);stroke-width:1px;stroke-linecap:butt;stroke-linejoin:miter;opacity:1;font-family:&quot;Anthropic Sans&quot;, -apple-system, BlinkMacSystemFont, &quot;Segoe UI&quot;, sans-serif;font-size:16px;font-weight:400;text-anchor:start;dominant-baseline:auto">Green wallet with upward arrow indicating income</desc>
  <g fill="none" style="fill:none;stroke:none;color:rgb(255, 255, 255);stroke-width:1px;stroke-linecap:butt;stroke-linejoin:miter;opacity:1;font-family:&quot;Anthropic Sans&quot;, -apple-system, BlinkMacSystemFont, &quot;Segoe UI&quot;, sans-serif;font-size:16px;font-weight:400;text-anchor:start;dominant-baseline:auto">
    <path fill="#2d6a4f" d="M1775.678,899.63V592.319c0-45.497-37.014-82.51-82.51-82.51h-51.897V333.578&#10;      c0-45.495-37.013-82.507-82.508-82.507H535.565c-87.876,0-159.369,71.492-159.369,159.368c0,0.064,0.002,0.128,0.002,0.192&#10;      v1047.04c0,88.225,71.775,160,160,160h472.535c16.568,0,30-13.432,30-30s-13.432-30-30-30H536.198c-55.141,0-100-44.86-100-100&#10;      V534.939c27.267,21.806,61.818,34.867,99.366,34.867h1075.627c0.026,0,0.051,0.002,0.077,0.002h81.899&#10;      c12.412,0,22.51,10.098,22.51,22.51v303.078h-208.301c-59.904,0-108.641,48.735-108.641,108.64v119.4&#10;      c0,59.904,48.736,108.64,108.641,108.64h208.301v122.817c0,16.568,13.432,30,30,30s30-13.432,30-30v-127.051&#10;      c28.021-10.042,48.126-36.858,48.126-68.289V967.92C1823.804,936.488,1803.699,909.672,1775.678,899.63z&#10;      M436.198,410.631v-0.192c0-0.022-0.002-0.043-0.002-0.064c0.035-54.762,44.597-99.304,99.368-99.304h1023.198&#10;      c12.411,0,22.508,10.097,22.508,22.507v176.229H535.565C480.837,509.807,436.303,465.334,436.198,410.631z&#10;      M1458.737,1123.436v-119.4c0-26.82,21.82-48.64,48.641-48.64h238.166c0.045,0,0.09,0.003,0.135,0.003&#10;      s0.09-0.003,0.135-0.003h5.468c6.905,0,12.523,5.618,12.523,12.523v191.633c0,6.905-5.618,12.523-12.523,12.523&#10;      h-243.903C1480.557,1172.076,1458.737,1150.257,1458.737,1123.436z" style="fill:rgb(45, 106, 79);stroke:none;color:rgb(255, 255, 255);stroke-width:1px;stroke-linecap:butt;stroke-linejoin:miter;opacity:1;font-family:&quot;Anthropic Sans&quot;, -apple-system, BlinkMacSystemFont, &quot;Segoe UI&quot;, sans-serif;font-size:16px;font-weight:400;text-anchor:start;dominant-baseline:auto"/>
    <path fill="#2d6a4f" d="M1595.099,1033.736h-41.202c-16.568,0-30,13.432-30,30s13.432,30,30,30h41.202&#10;      c16.568,0,30-13.432,30-30S1611.667,1033.736,1595.099,1033.736z" style="fill:rgb(45, 106, 79);stroke:none;color:rgb(255, 255, 255);stroke-width:1px;stroke-linecap:butt;stroke-linejoin:miter;opacity:1;font-family:&quot;Anthropic Sans&quot;, -apple-system, BlinkMacSystemFont, &quot;Segoe UI&quot;, sans-serif;font-size:16px;font-weight:400;text-anchor:start;dominant-baseline:auto"/>
    <line x1="1400" y1="1760" x2="1400" y2="1430" stroke="#2d6a4f" stroke-width="70" stroke-linecap="round" style="fill:none;stroke:rgb(45, 106, 79);color:rgb(255, 255, 255);stroke-width:70px;stroke-linecap:round;stroke-linejoin:miter;opacity:1;font-family:&quot;Anthropic Sans&quot;, -apple-system, BlinkMacSystemFont, &quot;Segoe UI&quot;, sans-serif;font-size:16px;font-weight:400;text-anchor:start;dominant-baseline:auto"/>
    <polyline points="1220,1580 1400,1400 1580,1580" fill="none" stroke="#2d6a4f" stroke-width="70" stroke-linecap="round" stroke-linejoin="round" style="fill:none;stroke:rgb(45, 106, 79);color:rgb(255, 255, 255);stroke-width:70px;stroke-linecap:round;stroke-linejoin:round;opacity:1;font-family:&quot;Anthropic Sans&quot;, -apple-system, BlinkMacSystemFont, &quot;Segoe UI&quot;, sans-serif;font-size:16px;font-weight:400;text-anchor:start;dominant-baseline:auto"/>
  </g>
</svg>