<svg xmlns="http://www.w3.org/2000/svg" width="512" height="512" viewBox="0 0 1024 1024" role="img" aria-labelledby="masktitle">
  <title id="masktitle">Finges</title>
  <defs>
    <linearGradient id="bg" x1="0" y1="0" x2="0.4" y2="1">
      <stop offset="0%" stop-color="#FFFFFF"/>
      <stop offset="100%" stop-color="#E8EFFE"/>
    </linearGradient>
    <linearGradient id="g1" x1="0" y1="0" x2="0.3" y2="1">
      <stop offset="0%" stop-color="#52E8A8"/>
      <stop offset="100%" stop-color="#28B87A"/>
    </linearGradient>
    <linearGradient id="g2" x1="0" y1="0" x2="0.3" y2="1">
      <stop offset="0%" stop-color="#3ED8E8"/>
      <stop offset="100%" stop-color="#1A9ECC"/>
    </linearGradient>
    <linearGradient id="g3" x1="0" y1="0" x2="0.3" y2="1">
      <stop offset="0%" stop-color="#60A8FF"/>
      <stop offset="100%" stop-color="#1A5FE8"/>
    </linearGradient>
    <linearGradient id="sh" x1="0" y1="0" x2="0" y2="1">
      <stop offset="0%" stop-color="rgba(255,255,255,0.52)"/>
      <stop offset="55%" stop-color="rgba(255,255,255,0)"/>
    </linearGradient>
    <linearGradient id="bsh" x1="0" y1="0" x2="0" y2="1">
      <stop offset="0%" stop-color="rgba(0,0,0,0)"/>
      <stop offset="100%" stop-color="rgba(0,0,0,0.14)"/>
    </linearGradient>
    <linearGradient id="coinbg" x1="0" y1="0" x2="0" y2="1">
      <stop offset="0%" stop-color="#FFFFFF"/>
      <stop offset="100%" stop-color="#EEF2FF"/>
    </linearGradient>
    <linearGradient id="coinring" x1="0" y1="0" x2="0" y2="1">
      <stop offset="0%" stop-color="#E0E8FF"/>
      <stop offset="100%" stop-color="#C8D8F8"/>
    </linearGradient>
    <filter id="bardepth" x="-20%" y="-10%" width="150%" height="130%">
      <feDropShadow dx="4" dy="8" stdDeviation="10" flood-color="#000" flood-opacity="0.16"/>
    </filter>
    <filter id="coinshadow" x="-30%" y="-30%" width="160%" height="160%">
      <feDropShadow dx="0" dy="8" stdDeviation="14" flood-color="#5577BB" flood-opacity="0.22"/>
    </filter>
    <filter id="lineglow" x="-20%" y="-20%" width="140%" height="140%">
      <feGaussianBlur in="SourceGraphic" stdDeviation="5" result="blur"/>
      <feMerge><feMergeNode in="blur"/><feMergeNode in="SourceGraphic"/></feMerge>
    </filter>
    <filter id="dotglow" x="-50%" y="-50%" width="200%" height="200%">
      <feDropShadow dx="0" dy="2" stdDeviation="8" flood-color="#fff" flood-opacity="0.9"/>
    </filter>
  </defs>

  <!-- Full-bleed background for maskable safe zone compliance -->
  <rect width="1024" height="1024" fill="url(#bg)"/>

  <g filter="url(#bardepth)">
    <rect x="230" y="530" width="155" height="325" rx="36" fill="url(#g1)"/>
    <rect x="230" y="530" width="155" height="325" rx="36" fill="url(#bsh)"/>
    <rect x="230" y="530" width="52" height="325" rx="36" fill="url(#sh)" opacity="0.9"/>
  </g>
  <g filter="url(#bardepth)">
    <rect x="415" y="390" width="155" height="465" rx="36" fill="url(#g2)"/>
    <rect x="415" y="390" width="155" height="465" rx="36" fill="url(#bsh)"/>
    <rect x="415" y="390" width="52" height="465" rx="36" fill="url(#sh)" opacity="0.9"/>
  </g>
  <g filter="url(#bardepth)">
    <rect x="600" y="210" width="160" height="645" rx="36" fill="url(#g3)"/>
    <rect x="600" y="210" width="160" height="645" rx="36" fill="url(#bsh)"/>
    <rect x="600" y="210" width="54" height="645" rx="36" fill="url(#sh)" opacity="0.9"/>
  </g>

  <path d="M307 668 C390 600 460 450 492 432 C530 412 590 358 680 310" stroke="rgba(255,255,255,0.32)" stroke-width="32" fill="none" stroke-linecap="round" filter="url(#lineglow)"/>
  <path d="M307 668 C390 600 460 450 492 432 C530 412 590 358 680 310" stroke="white" stroke-width="18" fill="none" stroke-linecap="round"/>

  <circle cx="307" cy="668" r="30" fill="white" filter="url(#dotglow)"/>
  <circle cx="307" cy="668" r="15" fill="#3ABDE0"/>
  <circle cx="492" cy="432" r="30" fill="white" filter="url(#dotglow)"/>
  <circle cx="492" cy="432" r="15" fill="#3ABDE0"/>
  <circle cx="680" cy="310" r="30" fill="white" filter="url(#dotglow)"/>
  <circle cx="680" cy="310" r="15" fill="#4B8EF5"/>

  <g filter="url(#coinshadow)">
    <circle cx="724" cy="748" r="118" fill="url(#coinring)"/>
    <circle cx="724" cy="748" r="100" fill="url(#coinbg)"/>
    <circle cx="724" cy="748" r="100" fill="none" stroke="rgba(180,200,240,0.6)" stroke-width="2"/>
    <path d="M748 692 A62 62 0 1 0 748 804" fill="none" stroke="#1B3A7A" stroke-width="28" stroke-linecap="round"/>
    <line x1="650" y1="732" x2="715" y2="732" stroke="#1B3A7A" stroke-width="22" stroke-linecap="round"/>
    <line x1="650" y1="764" x2="715" y2="764" stroke="#1B3A7A" stroke-width="22" stroke-linecap="round"/>
  </g>
</svg>
