<svg xmlns="http://www.w3.org/2000/svg" width="1200" height="630" viewBox="0 0 1200 630" role="img" aria-labelledby="title desc">
  <title id="title">Finges personal finance tracker</title>
  <desc id="desc">A warm finance dashboard preview with charts and portfolio metrics.</desc>
  <rect width="1200" height="630" fill="#f7f1e7"/>
  <rect x="64" y="58" width="1072" height="514" rx="24" fill="#fffaf1" stroke="#d8cfc0" stroke-width="2"/>
  <text x="104" y="128" fill="#2d251c" font-family="Georgia, serif" font-size="60" font-weight="700">Finges</text>
  <text x="104" y="174" fill="#6d6257" font-family="Arial, sans-serif" font-size="28">Personal finance tracker</text>
  <g transform="translate(104 238)">
    <rect width="230" height="122" rx="14" fill="#ffffff" stroke="#ddd3c5"/>
    <text x="24" y="43" fill="#7a6f62" font-family="Arial, sans-serif" font-size="18" letter-spacing="2">CASHFLOW</text>
    <text x="24" y="88" fill="#2f6f45" font-family="Arial, sans-serif" font-size="36" font-weight="700">+€2.4k</text>
  </g>
  <g transform="translate(368 238)">
    <rect width="230" height="122" rx="14" fill="#ffffff" stroke="#ddd3c5"/>
    <text x="24" y="43" fill="#7a6f62" font-family="Arial, sans-serif" font-size="18" letter-spacing="2">PORTFOLIO</text>
    <text x="24" y="88" fill="#2d251c" font-family="Arial, sans-serif" font-size="36" font-weight="700">€84.7k</text>
  </g>
  <g transform="translate(632 238)">
    <rect width="230" height="122" rx="14" fill="#ffffff" stroke="#ddd3c5"/>
    <text x="24" y="43" fill="#7a6f62" font-family="Arial, sans-serif" font-size="18" letter-spacing="2">SAVINGS</text>
    <text x="24" y="88" fill="#2d251c" font-family="Arial, sans-serif" font-size="36" font-weight="700">38%</text>
  </g>
  <g transform="translate(896 238)">
    <rect width="160" height="122" rx="14" fill="#ffffff" stroke="#ddd3c5"/>
    <text x="24" y="43" fill="#7a6f62" font-family="Arial, sans-serif" font-size="18" letter-spacing="2">P&amp;L</text>
    <text x="24" y="88" fill="#2f6f45" font-family="Arial, sans-serif" font-size="34" font-weight="700">+5.8%</text>
  </g>
  <g transform="translate(104 414)">
    <rect width="952" height="92" rx="14" fill="#ffffff" stroke="#ddd3c5"/>
    <path d="M34 62 C150 22 246 70 348 36 S552 20 660 46 820 70 918 26" fill="none" stroke="#2f6f45" stroke-width="6" stroke-linecap="round"/>
    <path d="M34 62 C150 22 246 70 348 36 S552 20 660 46 820 70 918 26 L918 76 L34 76 Z" fill="#2f6f45" opacity="0.12"/>
  </g>
</svg>
